<svg width="374" height="324" viewBox="0 0 374 324" fill="none" xmlns="http://www.w3.org/2000/svg">
<rect x="-1" y="18" width="375" height="287" fill="#E3EBE7"/>
<path d="M88.6087 11.3084C94.1821 7.55052 118.795 0.48575 172.661 2.28952C208.596 1.69777 268.23 2.03783 277.499 6.61111M88.6087 11.3084C83.186 13.7644 77.7633 41.5216 77.7633 40.1688M88.6087 11.3084L94.9352 11.6372M272.529 11.3084L265.298 11.881M272.529 11.3084C278.833 9.39043 280.003 7.84636 277.499 6.61111M272.529 11.3084H279.533M244.059 13.5631C215.138 15.0663 152.235 17.1707 131.99 13.5631M244.059 13.5631C207.908 4.18351 154.284 9.65495 131.99 13.5631M244.059 13.5631L226.888 12.2103C199.021 11.3084 144.191 10.2261 147.807 13.1122C151.422 15.9982 202.485 9.95558 202.485 9.95558M244.059 13.5631L255.809 12.6326M131.99 13.5631L114.367 12.6471M77.7633 40.1688C80.6253 40.6197 86.2589 41.251 85.8974 40.1688M77.7633 40.1688L76.7981 39.9623C73.3699 39.2293 69.7581 39.7808 69.2125 43.2438V43.2438C68.388 48.4771 73.0388 52.972 78.2617 53.8602C79.7582 54.1147 81.249 54.3639 82.7342 54.6079M94.9352 11.6372C91.772 20.6968 85.5359 39.0865 85.8974 40.1688M94.9352 11.6372L108.944 12.3653M85.8974 40.1688C87.861 40.4684 89.8193 40.758 91.772 41.0377M287.441 40.1688L295.575 39.2669M287.441 40.1688C289.249 40.1688 282.922 20.9285 279.533 11.3084M287.441 40.1688C285.675 40.5286 283.714 40.8973 281.566 41.2691M264.846 43.7017C267.892 43.3278 270.758 42.9438 273.432 42.5561M264.846 43.7017C264.244 33.7439 265.118 19.5739 273.432 42.5561M264.846 43.7017C252.402 45.229 236.948 46.5864 219.205 47.3321M273.432 42.5561C276.38 42.1287 279.096 41.6968 281.566 41.2691M267.106 33.4046C266.955 35.0581 266.744 38.7257 267.106 40.1688C267.462 41.5914 269.019 39.0403 269.785 37.5276C269.805 37.4872 269.802 37.4399 269.777 37.4023V37.4023C269.691 37.2736 269.493 37.3835 269.558 37.5243L271.173 41.0706L269.828 38.1617C268.918 36.1958 267.857 34.3038 266.654 32.5027V32.5027M255.809 12.6326L260.328 18.5235M255.809 12.6326L265.298 11.881M260.328 18.5235C258.52 15.7486 258.43 12.6999 265.298 11.881M260.328 18.5235C260.779 19.8763 264.937 11.6176 265.298 11.881M286.537 11.3084L277.499 6.61111M286.537 11.3084C290.152 19.8763 297.021 37.4631 295.575 39.2669M286.537 11.3084H279.533M295.575 39.2669H297.221C299.996 39.2669 301.559 38.6181 303.127 40.9072V40.9072C306.589 45.9584 300.993 53.5878 295.047 55.0518C293.915 55.3304 292.735 55.6091 291.508 55.8867M82.7342 54.6079C84.5417 73.3942 87.705 110.967 85.8974 110.967M82.7342 54.6079C84.0946 54.8314 85.4503 55.0505 86.8012 55.2653M85.8974 110.967C83.9392 110.666 80.0228 111.147 80.0228 115.476L91.992 224.679C92.4208 228.592 94.8217 231.894 98.0985 234.074V234.074M85.8974 110.967L82.657 113.841C82.1313 114.307 81.8304 114.977 81.8304 115.679V116.454C81.8304 117.193 82.3594 117.827 83.087 117.959L83.2457 117.988C84.5401 118.223 85.4636 116.764 84.6979 115.694L84.6229 115.59C84.5692 115.515 84.5024 115.45 84.4256 115.399V115.399C83.9086 115.055 83.9989 114.27 84.5804 114.053L86.1872 113.451C86.5698 113.308 86.999 113.37 87.326 113.614L87.5513 113.783C88.0796 114.178 88.0796 114.97 87.5513 115.366V115.366C87.1307 115.681 87.0298 116.269 87.3217 116.706L87.5512 117.05C88.0795 117.841 89.2194 117.902 89.829 117.172L90.6027 116.245C90.7763 116.037 91.0043 115.882 91.2613 115.796V115.796C91.8398 115.604 92.477 115.792 92.8584 116.268L92.9272 116.353C93.5205 117.094 93.3514 118.183 92.5616 118.709L91.4093 119.475C90.5204 120.067 90.0288 121.075 90.1351 122.138C93.6366 157.14 99.8768 225.911 98.0985 234.074M85.8974 110.967C89.1286 112.253 92.4045 113.454 95.7178 114.574M98.0985 234.074L100.439 287.792C100.672 293.149 103.387 298.142 108.04 300.808V300.808M98.0985 234.074C101.578 235.504 105.673 236.994 110.3 238.466M276.596 232.27L272.412 286.163C271.914 292.574 268.577 298.489 263.039 301.755V301.755M276.596 232.27V232.27C281.579 230.613 281.917 224.239 282.598 219.031C286.402 189.944 291.965 145.172 293.511 125.101C294.027 118.402 293.205 109.995 286.537 109.163V109.163M276.596 232.27C275.248 232.89 273.896 233.491 272.541 234.074M286.537 109.163L291.508 55.8867M286.537 109.163L285.816 113.24C285.745 113.644 286.319 113.801 286.464 113.418V113.418C286.509 113.297 286.619 113.212 286.747 113.207C288.034 113.162 287.913 114.016 286.537 113.672C285.429 113.396 286.904 112.308 287.789 111.746C288.139 111.524 288.565 111.491 288.958 111.622V111.622C289.426 111.777 289.792 112.144 289.948 112.611L290.152 113.222L290.706 115.707C290.898 116.57 290.343 117.422 289.476 117.595L289.039 117.683C287.98 117.894 287.118 116.83 287.544 115.837L287.86 115.101C287.88 115.055 287.926 115.025 287.976 115.025V115.025C288.128 115.025 288.149 115.245 288 115.274L284.829 115.907C284.764 115.92 284.702 115.948 284.649 115.988L282.922 117.28M291.508 55.8867C289.929 56.244 288.272 56.5996 286.537 56.9515M282.922 117.28C280.911 155.61 276.02 232.631 272.541 234.074M282.922 117.28C281.195 117.727 279.348 118.179 277.388 118.633M272.541 234.074C269.688 235.301 266.82 236.447 263.943 237.516M263.943 237.516L271.625 119.9M263.943 237.516C259.145 239.297 254.319 240.863 249.482 242.232M271.625 119.9C272.081 119.805 272.533 119.709 272.981 119.613M271.625 119.9C270.45 120.145 269.245 120.39 268.01 120.633M256.261 122.736L249.482 242.232M256.261 122.736C251.973 123.432 247.442 124.093 242.704 124.699M256.261 122.736C258.115 122.435 259.923 122.128 261.683 121.815M249.482 242.232C245.72 243.296 241.951 244.241 238.185 245.074M242.704 124.699L238.185 245.074M242.704 124.699C238.632 125.22 234.406 125.7 230.051 126.127M238.185 245.074C234.414 245.908 230.645 246.631 226.888 247.25M230.051 126.127L226.888 247.25M230.051 126.127C225.372 126.585 220.542 126.982 215.59 127.3M226.888 247.25C222.195 248.022 217.52 248.634 212.879 249.099M215.59 127.3L212.879 249.099M215.59 127.3C211.889 127.538 208.119 127.733 204.293 127.877M212.879 249.099C210.002 249.388 207.139 249.62 204.293 249.801M204.293 127.877V249.801M204.293 127.877C198.387 128.1 192.347 128.203 186.217 128.161M204.293 249.801C198.174 250.188 192.136 250.335 186.217 250.277M186.217 128.161V250.277M186.217 128.161C180.854 128.125 175.422 127.978 169.949 127.704M186.217 250.277C181.663 250.233 177.18 250.069 172.787 249.801M169.949 127.704L172.787 249.801M169.949 127.704C166.05 127.509 162.13 127.249 158.2 126.919M172.787 249.801C168.905 249.564 165.093 249.246 161.363 248.859M158.2 126.919L161.363 248.859M158.2 126.919C153.238 126.502 148.26 125.972 143.288 125.318M161.363 248.859C156.385 248.343 151.555 247.705 146.903 246.971M143.288 125.318L146.903 246.971M143.288 125.318C139.515 124.822 135.746 124.253 131.99 123.608M146.903 246.971C143.235 246.393 139.678 245.756 136.246 245.074M131.99 123.608L136.246 245.074M131.99 123.608C127.295 122.802 122.619 121.876 117.982 120.818M136.246 245.074C131.807 244.192 127.578 243.234 123.59 242.232M117.982 120.818L123.59 242.232M117.982 120.818C116.925 120.578 115.871 120.33 114.818 120.076M123.59 242.232C118.791 241.025 114.342 239.752 110.3 238.466M102.165 116.639L110.3 238.466M102.165 116.639C100.922 116.262 99.6823 115.875 98.4477 115.476M102.165 116.639C103.402 117.014 104.643 117.377 105.888 117.731M90.8682 83.4593L86.8012 55.2653M90.8682 83.4593V55.9012M90.8682 83.4593C89.0606 72.6366 86.9819 52.5246 93.1277 58.6574C97.597 63.1174 97.2388 62.4419 95.8418 60.7588C95.3257 60.137 94.3384 60.5975 94.4647 61.3956V61.3956C94.6116 62.3237 96.1902 62.3278 96.43 61.4192C97.0835 58.943 97.9691 57.214 99.0023 58.6574C100.388 60.5933 102.924 61.0628 104.779 61.0411C105.54 61.0321 106.233 61.6124 106.233 62.3734V62.3734C106.233 63.6913 108.033 64.073 108.568 62.8685L110.437 58.6574M86.8012 55.2653C88.1617 55.4816 89.5174 55.6936 90.8682 55.9012M90.8682 55.9012C97.5116 56.9223 104.036 57.8387 110.437 58.6574M110.437 58.6574C179.103 67.4398 233.61 64.9843 268.914 59.9574M97.1947 23.9348L91.772 41.0377M91.772 41.0377C95.865 41.624 99.9332 42.167 103.973 42.6687M107.588 32.9537L103.973 42.6687M103.973 42.6687C120.659 44.7413 136.861 46.1114 152.325 46.9336M111.203 21.2291L108.944 12.3653M111.203 21.2291L114.367 12.6471M111.203 21.2291L111.655 12.5062M108.944 12.3653L111.655 12.5062M114.367 12.6471L111.655 12.5062M152.325 46.9336C152.476 44.8289 153.229 40.3491 155.037 39.2669M152.325 46.9336C175.686 48.1755 197.366 48.1671 216.494 47.4405M155.037 39.2669C156.415 38.4419 156.655 41.5827 156.558 44.4543C156.527 45.363 155.407 45.7036 154.838 44.9941V44.9941C154.676 44.7912 154.597 44.5338 154.619 44.2748L155.037 39.2669ZM216.494 47.4405C216.946 44.5656 218.211 38.9963 219.657 39.7178M216.494 47.4405C217.404 47.406 218.307 47.3698 219.205 47.3321M219.657 39.7178C220.679 40.2277 221.16 42.5697 221.353 44.6423C221.477 45.9637 220.512 47.1012 219.205 47.3321V47.3321M219.657 39.7178L219.205 47.3321M281.566 41.2691L277.499 24.8367M286.537 56.9515C286.537 57.3065 286.535 57.6595 286.53 58.0105C286.46 63.3062 283.382 62.7638 283.826 57.4862V57.4862M286.537 56.9515C285.654 57.1308 284.75 57.3091 283.826 57.4862M286.537 56.9515L283.826 57.4862M283.826 57.4862C282.228 57.7925 280.571 58.0952 278.855 58.3927M278.855 58.3927C278.855 63.1407 278.765 71.8249 278.403 68.5782C278.042 65.3314 276.445 60.7895 275.692 58.9244M278.855 58.3927C277.822 58.5719 276.767 58.7492 275.692 58.9244M275.692 58.9244C273.518 59.2784 271.258 59.6236 268.914 59.9574M268.914 59.9574C268.914 63.4322 268.642 70.1114 267.558 69.0291C266.473 67.9468 266.202 62.8662 266.202 60.4612M272.981 119.613C273.432 112.522 274.607 98.7011 275.692 100.144M272.981 119.613C273.805 119.437 274.613 119.26 275.404 119.084M275.692 100.144C276.776 101.587 277.275 113.071 277.388 118.633M275.692 100.144L275.404 119.084M277.388 118.633C276.739 118.783 276.078 118.933 275.404 119.084M258.52 122.24C258.52 118.182 258.791 110.426 259.876 111.869C260.96 113.312 261.533 119.101 261.683 121.815M261.683 121.815C262.292 121.707 262.894 121.599 263.491 121.49M263.491 121.49C263.792 116.178 264.575 106.097 265.298 108.261M263.491 121.49C264.254 121.35 265.007 121.21 265.75 121.069M265.298 108.261C266.021 110.426 267.407 117.411 268.01 120.633M265.298 108.261L265.75 121.069M268.01 120.633C267.267 120.779 266.514 120.925 265.75 121.069M108.04 300.808C108.793 286.831 110.3 259.598 110.3 262.484C110.3 265.37 110.3 290.079 110.3 302.073M108.04 300.808C108.775 301.229 109.528 301.651 110.3 302.073M110.3 302.073C112.02 303.014 113.829 303.955 115.722 304.887M115.722 304.887C116.325 297.367 117.62 283.317 117.982 287.285C118.343 291.254 118.735 301.682 118.885 306.4M115.722 304.887C116.752 305.395 117.807 305.9 118.885 306.4M118.885 306.4C121.327 307.534 123.891 308.648 126.568 309.727M126.568 309.727C127.17 304.802 128.375 295.312 128.375 296.755C128.375 298.198 128.978 306.714 129.279 310.792M126.568 309.727C127.459 310.086 128.363 310.441 129.279 310.792M129.279 310.792C158.611 322.023 200.377 328.633 242.704 311.753M242.704 311.753C243.306 306.303 244.511 295.763 244.511 297.206C244.511 298.649 245.415 306.635 245.867 310.448M242.704 311.753C243.758 311.332 244.812 310.897 245.867 310.448M245.867 310.448C248.729 309.227 251.592 307.897 254.453 306.451M254.453 306.451C254.905 299.912 255.809 287.376 255.809 289.54C255.809 291.705 256.411 300.939 256.712 305.285M254.453 306.451C255.206 306.071 255.96 305.682 256.712 305.285M256.712 305.285C257.798 304.714 258.882 304.125 259.966 303.519M259.966 303.519C261.292 283.828 263.943 248.955 263.943 266.993C263.943 285.031 263.34 297.683 263.039 301.755M259.966 303.519C260.991 302.947 262.015 302.359 263.039 301.755M95.7178 114.574C96.0595 109.464 96.8332 99.6932 97.1947 101.497C97.5562 103.301 98.1807 111.568 98.4477 115.476M95.7178 114.574C96.625 114.881 97.5351 115.182 98.4477 115.476M105.888 117.731C106.756 113.222 108.402 105.555 108.04 110.967C108.028 111.145 108.018 111.314 108.011 111.473C107.813 115.674 114.748 109.033 114.367 113.222V113.222C114.005 117.19 114.517 119.444 114.818 120.076M105.888 117.731C108.843 118.57 111.822 119.351 114.818 120.076M108.04 116.378C109.396 116.679 112.197 117.28 112.559 117.28C112.919 117.28 112.412 113.997 112.11 112.338C112.108 112.325 112.107 112.313 112.107 112.301V112.301C112.107 112.08 111.818 112.014 111.726 112.214C111.276 113.192 110.751 114.475 110.751 115.025C110.751 115.747 108.341 116.228 107.136 116.378" stroke="#444A4A" stroke-width="4"/>
</svg>
