<svg width="375" height="271" viewBox="0 0 375 271" fill="none" xmlns="http://www.w3.org/2000/svg">
<rect x="-1" y="23" width="380" height="248" fill="#FAE9E0"/>
<path d="M253.018 189.069C199.461 226.337 138.342 203.666 114.477 187.672H114.012C113.702 187.051 112.989 185.436 112.617 183.945C112.365 182.934 110.1 180.721 107.944 178.821M253.018 189.069C232.098 202.579 175.565 220.933 116.801 186.274M253.018 189.069C201.321 224.101 140.667 205.84 116.801 192.33V186.274M253.018 189.069L252.554 188.604M116.801 186.274L113.547 183.479L109.828 179.287L107.944 178.821M289.746 183.013L284.632 186.74C282.772 181.895 262.162 185.653 252.089 188.138L252.554 188.604M289.746 183.013C294.705 183.79 303.414 186.927 298.579 193.262C292.69 197.92 274.311 208.076 247.905 211.43C224.504 215.467 167.569 221.12 127.029 211.43C90.7668 204.908 35.0713 188.976 102.389 177.423L105.179 176.492M289.746 183.013C280.82 180.405 269.91 175.405 265.571 173.231M105.179 176.492C105.926 177.091 106.923 177.921 107.944 178.821M105.179 176.492L97.5019 165.777M92.1615 158.324C50.0102 162.361 -19.4156 179.752 40.0922 217.02C74.3402 235.964 173.985 265.375 298.579 231.461C345.844 214.536 408.018 176.119 278.588 157.858M92.1615 158.324C64.2672 111.366 63.1825 55.8377 66.1269 33.943M92.1615 158.324L97.5019 165.777M278.588 157.858L290.211 132.236M278.588 157.858L272.08 165.544M252.554 188.604L265.571 173.231M265.571 173.231L272.08 165.544M284.632 183.479L266.501 176.026L259.527 184.411L274.404 181.616L276.264 182.548H277.658L267.431 178.821L265.571 179.752L264.176 181.616L267.431 181.15M290.211 132.236C317.33 129.286 367.943 113.416 353.438 73.5399C349.409 64.3782 334.656 48.5706 307.877 58.6328M290.211 132.236C291.633 129.786 292.986 126.781 294.265 123.385M307.877 58.6328C307.563 61.4191 307.143 64.7377 306.623 68.4156M307.877 58.6328L306.623 68.4156M294.265 123.385C294.785 122.003 295.294 120.556 295.79 119.056M294.265 123.385C295.429 123.177 296.836 122.899 298.366 122.561M295.79 119.056L317.175 115.932C317.485 114.534 317.547 112.578 315.316 115.932C313.511 118.644 304.838 121.134 298.366 122.561M295.79 119.056C296.126 118.038 296.456 116.995 296.781 115.932M296.781 115.932L298.366 122.561M296.781 115.932C300.617 103.361 303.63 87.8114 305.649 74.9374M296.781 115.932C304.483 115.665 316.592 113.416 325.544 107.353M305.649 74.9374C329.53 69.7199 336.611 80.5275 337.166 86.5835C337.166 92.1845 335.477 96.7917 332.733 100.559M305.649 74.9374C306.005 72.6702 306.33 70.4859 306.623 68.4156M306.623 68.4156C311.535 67.4839 321.638 65.9 322.754 67.018M306.623 68.4156V33.943M332.733 100.559C335.529 103.509 338.214 108.851 326.591 106.615M332.733 100.559C331.964 101.614 331.113 102.604 330.193 103.531M326.591 106.615C327.875 105.674 329.084 104.648 330.193 103.531M326.591 106.615C326.247 106.867 325.898 107.113 325.544 107.353M330.193 103.531C332.362 105.516 334.47 109.061 325.544 107.353M306.623 33.943C282.188 61.521 214.215 65.6205 183.283 64.2229C156.628 65.7758 95.8808 61.8937 66.1269 33.943M306.623 33.943C307.09 31.1408 306.211 27.7153 303.214 24.1603M66.1269 33.943C64.9809 31.2931 65.6 27.8293 69.4516 24.1603M75.425 81.4592C83.6383 116.398 108.247 186.74 140.976 188.604M303.214 24.1603C293.59 12.7436 262.127 -0.00791271 183.283 2.26557C109.295 4.39902 79.1422 14.9291 69.4516 24.1603M303.214 24.1603C301.843 25.9448 299.808 28.0065 297.069 30.2163M69.4516 24.1603C70.546 26.1268 71.921 27.9885 73.5421 29.7504M73.5421 29.7504C79.9036 24.7814 95.2299 15.3092 105.644 17.1726M73.5421 29.7504C80.0721 36.8476 90.5949 42.3248 102.854 46.5032M151.204 10.1849C158.643 9.25324 174.822 7.5762 180.028 8.32155M190.721 8.32155C200.019 8.16627 218.801 8.32155 219.545 10.1849M102.854 46.5032C129.079 55.4415 163.251 58.4367 183.283 58.6328C222.119 58.6328 250.589 52.4304 270.22 44.8589M102.854 46.5032C123.93 38.1029 186.909 26.0135 270.22 44.8589M270.22 44.8589C282.508 40.1193 291.333 34.8433 297.069 30.2163M272.08 165.544C284.942 165.622 311.596 167.081 315.316 172.299M97.5019 165.777C81.9296 166.088 49.9482 168.665 46.6009 176.492M68.4514 200.716C80.5389 208.945 113.64 225.033 149.345 223.542M229.308 221.213C245.425 219.349 279.518 214.225 286.956 208.635M263.246 16.2409C273.242 18.1043 294.001 23.5081 297.069 30.2163M293 60.4962C293.155 78.8194 287.049 126.273 261.387 169.504M247.905 183.479L255.343 175.56M110.758 183.013L95.4158 187.206C94.9509 187.827 94.3931 188.976 95.8807 188.604C97.3684 188.231 107.038 185.964 111.688 184.877L110.758 183.013Z" stroke="#444A4A" stroke-width="4"/>
</svg>
